PathFileType	4	(X/Y/Z)	Patient4_TMGait_0pt6_01_right_29.trc.trc
DataRate	CameraRate	NumFrames	NumMarkers	Units	OrigDataRate	OrigDataStartFrame	OrigNumFrames
82.352941176470	82.352941176470	5	33	mm	82.352941176470	124	       141
Frame#	Time	Sacral			L.Shoulder			Chest			R.Shoulder			Neck			R.ASIS			L.ASIS			R.Thigh.Superior			R.Thigh.Lateral			R.Thigh.Inferior			R.Patella			L.Thigh.Superior			L.Thigh.Lateral			L.Thigh.Inferior			L.Patella			L.Shank.Superior			L.Shank.Lateral			L.Shank.Inferior			R.Shank.Superior			R.Shank.Lateral			R.Shank.Inferior			R.Heel			R.Midfoot.Superior			R.Midfoot.Lateral			R.Toe			L.Heel			L.Midfoot.Lateral			L.Midfoot.Superior			L.Toe			L.Elbow			L.Wrist			R.Elbow			R.Wrist			
		X1	Y1	Z1	X2	Y2	Z2	X3	Y3	Z3	X4	Y4	Z4	X5	Y5	Z5	X6	Y6	Z6	X7	Y7	Z7	X8	Y8	Z8	X9	Y9	Z9	X10	Y10	Z10	X11	Y11	Z11	X12	Y12	Z12	X13	Y13	Z13	X14	Y14	Z14	X15	Y15	Z15	X16	Y16	Z16	X17	Y17	Z17	X18	Y18	Z18	X19	Y19	Z19	X20	Y20	Z20	X21	Y21	Z21	X22	Y22	Z22	X23	Y23	Z23	X24	Y24	Z24	X25	Y25	Z25	X26	Y26	Z26	X27	Y27	Z27	X28	Y28	Z28	X29	Y29	Z29	X30	Y30	Z30	X31	Y31	Z31	X32	Y32	Z32	X33	Y33	Z33	

124	36.183571428571	719.709267921473	995.744213739901	451.658317390754	893.717997675242	1434.489361314653	294.741909500865	985.832044253037	1364.283948900143	460.448283562251	886.184239788590	1427.572552618697	628.799658336405	858.936718523766	1488.070228412582	449.558092373311	940.808239937065	936.543545543695	584.200980278918	943.831321808254	957.395635038901	309.446977304169	1012.792302508196	756.040832011588	556.573556540139	954.842557140194	633.315290206232	618.268037038929	1046.685155784885	596.891712298107	542.920532384029	1071.492944475696	512.308990206297	552.780547876265	945.619295691481	725.284798665422	338.385088922401	830.475395105952	630.251316042363	275.065115344167	887.457887046658	537.531419575994	342.396044409169	870.673661909172	469.572416808600	352.881848963376	835.727115565087	403.376223970583	344.493073378147	730.584385598874	302.071806243493	294.820187897628	763.703135941650	186.285287481488	368.064743847206	1055.809639112055	421.879363977927	559.058931838403	998.372603854937	306.707877739597	614.434795332121	1067.008986962770	222.369430369530	560.495596334925	971.744295452199	40.823391796991	521.825173609891	1132.366550425814	110.203743635803	569.015743814245	1051.569822996331	38.915751466371	600.304180398733	1254.800849291141	71.625971584717	602.498717260211	621.913961276376	38.355945017691	416.156031065557	691.375189885028	34.601653993863	331.729692936519	776.658989647193	95.176955747504	354.573327777950	903.200249990427	41.636289683037	318.341238304231	983.424615086610	1111.096503839646	141.603713550987	1239.260844237652	1074.303514977496	146.416250213085	744.193912954716	1109.417920135362	721.722293833228	709.805155840016	850.371160569942	721.270951949843	
125	36.195714285714	721.818999113929	994.358914495086	453.935095628805	893.543454656061	1433.165403466671	296.245746583289	986.135385927645	1363.966160983613	462.150833001283	886.031182071774	1426.951877632707	630.445571160582	858.754072495217	1487.066277711144	450.944632657674	943.133824640917	935.633957664711	586.283182665598	946.083613828915	956.430770765911	311.711827560275	1014.885741979124	753.860345804526	558.448960752170	954.952395506899	631.527258416410	618.616123630235	1046.705644869630	594.834209496842	543.430669159918	1069.846830328489	509.431154421353	552.437788537760	946.990246143973	724.016729310022	339.659018071594	830.966965140252	629.496992917137	276.941738146994	888.182973542559	536.175063844170	343.440425241260	871.220313458611	467.465937264671	353.660516059240	834.534813365153	401.948477986275	345.355149198297	727.213833718057	302.855738544646	295.563055870508	758.297420060214	186.044482609987	368.071952436358	1053.377842036274	418.803506287713	558.597003209757	994.565873515944	304.290799736745	613.890885807927	1061.433735881914	219.148542103578	559.261451359918	962.299434038340	40.591880965183	520.958934198988	1124.894934375075	106.350835452569	567.240628290472	1042.245832180124	37.653122880111	599.357563545131	1246.577652685374	64.801982898659	600.325764768765	614.502655391385	39.400773473788	415.729367634641	684.116281139651	34.823865495180	331.574044207478	769.751363338747	95.196309966369	354.198936335533	896.018308440085	41.143756795666	318.227175998117	982.623322710604	1108.536011696106	144.416068057956	1238.587805228183	1072.467494765598	149.175305809535	745.939249269062	1107.834096393932	723.190496574975	712.071887905715	848.656306504446	722.904732960298	
126	36.207857142857	723.876971870341	993.261894785328	456.357007994922	893.418613657091	1432.047359401888	297.797401719662	986.511994382196	1363.853203763226	463.905414722465	885.976424756964	1426.553628950356	632.158541528840	858.666490926416	1486.330358048516	452.360025322413	945.401993927525	935.019255999617	588.508009622959	948.199511292215	955.686992030417	314.129048590544	1017.007574754518	752.131986113020	560.230868185824	955.513905673649	630.290974572070	619.190255977013	1046.927613364772	593.290399885692	543.878336004676	1068.608345404939	507.047652018854	552.254728376936	948.739532317763	723.097956898170	341.066089796484	832.073678164796	628.813090586461	278.954647128666	889.866192148237	534.960296234867	344.531225664563	872.878141334057	465.318862933187	354.308453783776	834.163512587630	400.557331896152	346.158013193628	724.445292053397	304.004492727565	296.331139520014	753.300842637186	186.074354088187	367.964639025675	1051.296538432335	416.240558879458	558.317164905321	991.212174410612	302.407734764941	613.703766482804	1056.129822485895	216.413748874275	558.246827916284	953.054644590666	40.594232816220	520.406482400226	1117.500033012606	103.151302956283	565.679346583185	1033.190364852200	36.793748301045	598.681435316411	1238.540324296788	58.943616837015	598.312201536143	607.171398818954	41.167992609128	415.205377564039	676.896081313722	35.363779065420	331.366488985666	763.062236790180	95.304126089333	353.667568092881	888.822174370367	40.616381995986	318.104112007012	981.421782332597	1105.901716460352	147.442459122877	1237.447414105333	1069.478167609718	151.940600741598	748.592401133219	1105.983790601656	724.756725972459	715.904601667160	846.591773931313	724.677907139887	
127	36.220000000000	725.851265928070	992.514170118548	458.908569595734	893.369985727538	1431.209642389512	299.395199972319	986.956013485247	1363.980943713470	465.705086189823	886.038463954695	1426.450823326968	633.921081189221	858.672006462865	1485.920207329785	453.800952455139	947.554648351118	934.748752531524	590.883640552289	950.117730983715	955.226423030563	316.685156571232	1019.054485775446	750.924089325246	561.939695104910	956.453246966054	629.624860751354	620.058005608111	1047.283833808061	592.266478407556	544.365158489574	1067.693806698394	505.197716156837	552.357793040927	950.869715778817	722.598334512823	342.629590535801	833.900162160252	628.215047139911	281.058315442091	892.646836417888	533.938265763027	345.641220998105	875.787630486224	463.186269122113	354.752994649997	834.749796692858	399.245718282826	346.844617525065	722.419135101056	305.597057446579	297.091272177727	748.839585800495	186.464805231724	367.713020716995	1049.510427603915	414.230829961058	558.314539030440	988.266941985618	301.074168469220	613.912016121311	1051.138880006238	214.227645482621	557.534672819863	944.272392460192	40.749775274586	520.119945828999	1110.303242836584	100.704064807499	564.442961184072	1024.614361055387	36.295081155114	598.275062329055	1230.829299427141	54.306161350796	596.641966468304	600.009944228538	43.879028701665	414.586688926953	669.757836866816	36.366977810000	331.102935587944	756.682495481262	95.541481269833	352.959457655818	881.605930436133	40.061089688721	317.981745445314	979.812252098560	1103.301456439499	150.694860566867	1235.802070405587	1065.346262954648	154.700526768270	752.119029482490	1104.001739738913	726.430684778030	721.297824210652	844.320857981130	726.577100630808	
128	36.232142857143	727.719722237838	992.143139615152	461.584967646630	893.403764318505	1430.703530546737	301.039033546102	987.451555851136	1364.367338192866	467.538538516787	886.230808259720	1426.695612338215	635.714548327619	858.750869448518	1485.864686374875	455.267316861005	949.554254230583	934.842670941285	593.411192324788	951.786238633007	955.087400617530	319.359198386968	1020.940761657065	750.248464047008	563.618284349718	957.635139235653	629.482976181481	621.250697042295	1047.690002230220	591.702257437304	545.007347096128	1066.963582891348	503.846918914557	552.840192510113	953.383032819042	722.559618375045	344.361532910100	836.552630360340	627.706433315777	283.195198054445	896.652115720204	533.149914606023	346.733076018116	880.067205033983	461.125270258975	354.927327377608	836.432492634000	398.052700252273	347.359804010975	721.289379066395	307.699953811924	297.809330127808	745.055126154419	187.303823512576	367.297298803764	1047.895581099899	412.745010712209	558.645609695226	985.586437744036	300.247184060378	614.505579911606	1046.397813528069	212.582530243092	557.166217427861	936.048084891279	40.986461261720	520.042453262111	1103.323198906875	99.003225893289	563.583345811065	1016.575450764589	36.085048642571	598.112327388355	1223.466120996314	50.947251778198	595.414673142356	593.138364360727	47.750522441541	413.880985548518	662.768873470588	37.999775128571	330.782144505311	750.717258598830	95.963045706561	352.068958569344	874.372895450366	39.483670606275	317.871777817712	977.793040983369	1100.841798890169	154.180457302712	1233.594545845955	1060.086504302228	157.447505073713	756.466083056565	1102.021519564472	728.227283296938	728.246202278070	841.993787665574	728.584068249181	
